<mxfile host="app.diagrams.net" agent="Mozilla/5.0 (Windows NT 10.0; Win64; x64) AppleWebKit/537.36 (KHTML, like Gecko) Chrome/141.0.0.0 Safari/537.36" version="28.2.8">
  <diagram name="第 1 页" id="LvuwR0kWL1oFxmLDKmuF">
    <mxGraphModel dx="1554" dy="858" grid="1" gridSize="10" guides="1" tooltips="1" connect="1" arrows="1" fold="1" page="1" pageScale="1" pageWidth="827" pageHeight="1169" math="0" shadow="0">
      <root>
        <mxCell id="0" />
        <mxCell id="1" parent="0" />
        <mxCell id="Eq9DRTTV88kCnqYg8ReQ-4" style="edgeStyle=orthogonalEdgeStyle;rounded=0;orthogonalLoop=1;jettySize=auto;html=1;exitX=1;exitY=0.5;exitDx=0;exitDy=0;endArrow=none;endFill=0;" parent="1" source="Eq9DRTTV88kCnqYg8ReQ-6" target="Eq9DRTTV88kCnqYg8ReQ-7" edge="1">
          <mxGeometry relative="1" as="geometry" />
        </mxCell>
        <mxCell id="Eq9DRTTV88kCnqYg8ReQ-5" value="夫妻" style="edgeLabel;html=1;align=center;verticalAlign=middle;resizable=0;points=[];" parent="Eq9DRTTV88kCnqYg8ReQ-4" vertex="1" connectable="0">
          <mxGeometry x="0.096" y="2" relative="1" as="geometry">
            <mxPoint as="offset" />
          </mxGeometry>
        </mxCell>
        <mxCell id="Eq9DRTTV88kCnqYg8ReQ-18" style="edgeStyle=orthogonalEdgeStyle;shape=connector;rounded=0;orthogonalLoop=1;jettySize=auto;html=1;exitX=0.5;exitY=1;exitDx=0;exitDy=0;strokeColor=default;align=center;verticalAlign=middle;fontFamily=Helvetica;fontSize=11;fontColor=default;labelBackgroundColor=default;endArrow=none;endFill=0;" parent="1" source="Eq9DRTTV88kCnqYg8ReQ-6" target="Eq9DRTTV88kCnqYg8ReQ-17" edge="1">
          <mxGeometry relative="1" as="geometry" />
        </mxCell>
        <mxCell id="Eq9DRTTV88kCnqYg8ReQ-21" style="edgeStyle=orthogonalEdgeStyle;shape=connector;rounded=0;orthogonalLoop=1;jettySize=auto;html=1;exitX=0.5;exitY=1;exitDx=0;exitDy=0;strokeColor=default;align=center;verticalAlign=middle;fontFamily=Helvetica;fontSize=11;fontColor=default;labelBackgroundColor=default;endArrow=none;endFill=0;entryX=0.42;entryY=0.044;entryDx=0;entryDy=0;entryPerimeter=0;" parent="1" source="Eq9DRTTV88kCnqYg8ReQ-6" target="Eq9DRTTV88kCnqYg8ReQ-22" edge="1">
          <mxGeometry relative="1" as="geometry">
            <mxPoint x="225" y="270" as="targetPoint" />
          </mxGeometry>
        </mxCell>
        <mxCell id="Eq9DRTTV88kCnqYg8ReQ-6" value="胡秀熙" style="rounded=0;whiteSpace=wrap;html=1;" parent="1" vertex="1">
          <mxGeometry x="200" y="120" width="80" height="40" as="geometry" />
        </mxCell>
        <mxCell id="Eq9DRTTV88kCnqYg8ReQ-7" value="刘洪德" style="rounded=1;whiteSpace=wrap;html=1;" parent="1" vertex="1">
          <mxGeometry x="310" y="120" width="80" height="40" as="geometry" />
        </mxCell>
        <mxCell id="Ewn2A1UR6LWbqzopsrf_-2" value="夫妻" style="edgeStyle=orthogonalEdgeStyle;rounded=0;orthogonalLoop=1;jettySize=auto;html=1;exitX=1;exitY=0.5;exitDx=0;exitDy=0;entryX=0;entryY=0.5;entryDx=0;entryDy=0;endArrow=none;endFill=0;" parent="1" source="Eq9DRTTV88kCnqYg8ReQ-17" target="Ewn2A1UR6LWbqzopsrf_-1" edge="1">
          <mxGeometry relative="1" as="geometry" />
        </mxCell>
        <mxCell id="Eq9DRTTV88kCnqYg8ReQ-17" value="胡显华" style="rounded=1;whiteSpace=wrap;html=1;fontFamily=Helvetica;fontSize=11;fontColor=default;labelBackgroundColor=default;" parent="1" vertex="1">
          <mxGeometry x="360" y="240" width="80" height="40" as="geometry" />
        </mxCell>
        <mxCell id="Eq9DRTTV88kCnqYg8ReQ-22" value="胡显杨" style="rounded=0;whiteSpace=wrap;html=1;" parent="1" vertex="1">
          <mxGeometry x="120" y="240" width="80" height="40" as="geometry" />
        </mxCell>
        <UserObject label="江式全" link="https://viewer.diagrams.net/?tags=%7B%7D&amp;lightbox=1&amp;highlight=0000ff&amp;edit=_blank&amp;layers=1&amp;nav=1&amp;title=%E6%B1%9F%E6%B0%8F%E5%AE%B6%E6%97%8F%E5%9B%BE.drawio&amp;dark=auto#Uhttps%3A%2F%2Fraw.githubusercontent.com%2Ftoppemonkey%2Fprocessing_folder%2Fmain%2F%E5%AE%B6%E6%97%8F%E7%BB%93%E6%9E%84%E5%9B%BE%2F%E6%B1%9F%E6%B0%8F%E5%AE%B6%E6%97%8F%E5%9B%BE.drawio" id="Ewn2A1UR6LWbqzopsrf_-1">
          <mxCell style="rounded=0;whiteSpace=wrap;html=1;" parent="1" vertex="1">
            <mxGeometry x="470" y="240.0000000000001" width="80" height="40" as="geometry" />
          </mxCell>
        </UserObject>
      </root>
    </mxGraphModel>
  </diagram>
</mxfile>
